# xmcd
#
# Track frame offsets:
# 150
# 19293
# 38328
# 53070
# 70835
# 86253
# 105801
# 121407
# 138201
# 154346
# 167496
# 180538
# 194849
# 210806
# 223766
# 236673
# 256597
# 273769
# 287945
# 303847
#
# Disc length: 4243 seconds
#
#
# Revision: 1
# Processed by: cddbd v1.5.2PL0 Copyright (c) Steve Scherf et al.
# Submitted via: FreeRIP 2.951 
#
DISCID=07109114
DTITLE=Benito Di Paula - Benito Di Paula - Seleção De Ouro - 20 Sucessos
DYEAR=1900
DGENRE=Popular
TTITLE0=Faixa 01 - Charlie Brown
TTITLE1=Faixa 02 - Vai Ficar Na Saudade
TTITLE2=Faixa 03 - Sanfona Branca
TTITLE3=Faixa 04 - Retalhos De Cetim
TTITLE4=Faixa 05 - Tudo Está No Seu Lugar
TTITLE5=Faixa 06 - Não Precisa Me Perdoar
TTITLE6=Faixa 07 - Modificação
TTITLE7=Faixa 08 - Amigo Do Sol, Amigo Da Lua
TTITLE8=Faixa 09 - Assobiar E Chupar Cana
TTITLE9=Faixa 10 - Pagode Da Pesada
TTITLE10=Faixa 11 - Do Jeito Que A Vida Quer
TTITLE11=Faixa 12 - Mulher Brasileira
TTITLE12=Faixa 13 - Além De Tudo
TTITLE13=Faixa 14 - Ah! Como Eu Amei
TTITLE14=Faixa 15 - Como Dizia O Mestre
TTITLE15=Faixa 16 - Fazendo Paixão
TTITLE16=Faixa 17 - Lua, Lua
TTITLE17=Faixa 18 - Viva O Sol
TTITLE18=Faixa 19 - Pau De Arara
TTITLE19=Faixa 20 - Olha Nós Aí
EXTD=pedro.rp@oi.com.br\nFev.2007
EXTT0=
EXTT1=
EXTT2=
EXTT3=
EXTT4=
EXTT5=
EXTT6=
EXTT7=
EXTT8=
EXTT9=
EXTT10=
EXTT11=
EXTT12=
EXTT13=
EXTT14=
EXTT15=
EXTT16=
EXTT17=
EXTT18=
EXTT19=
PLAYORDER=
